<?xml version="1.0" encoding="iso-8859-1"?>
<!-- Uploaded to: SVG Repo, www.svgrepo.com, Generator: SVG Repo Mixer Tools -->
<svg width="560" height="413" version="1.1" id="Layer_1" xmlns="http://www.w3.org/2000/svg" xmlns:xlink="http://www.w3.org/1999/xlink"
	 viewBox="0 0 512 512" xml:space="preserve">
<path style="fill:#FFC033;" d="M461.913,456.348H50.087c-9.223,0-16.696-7.473-16.696-16.696V372.87
	c0-9.223,7.473-16.696,16.696-16.696h411.826c9.223,0,16.696,7.473,16.696,16.696v66.783
	C478.609,448.875,471.136,456.348,461.913,456.348z"/>
<path style="fill:#FFE14D;" d="M478.609,389.565H33.391V72.348c0-6.957,4.31-13.185,10.821-15.63
	c6.527-2.424,13.859-0.598,18.44,4.636l102.511,117.152l76.946-115.418c6.608-9.913,21.175-9.913,27.783,0l76.946,115.418
	L449.349,61.353c4.587-5.234,11.935-7.06,18.44-4.636c6.51,2.445,10.82,8.674,10.82,15.63V389.565z"/>
<g>
	<path style="fill:#F37B2A;" d="M256,322.783c-27.619,0-50.087-22.468-50.087-50.087s22.468-50.087,50.087-50.087
		s50.087,22.468,50.087,50.087S283.619,322.783,256,322.783z"/>
	<path style="fill:#F37B2A;" d="M50.087,322.783C22.468,322.783,0,300.315,0,272.696s22.468-50.087,50.087-50.087
		s50.087,22.468,50.087,50.087S77.706,322.783,50.087,322.783z"/>
</g>
<path style="fill:#F9A926;" d="M461.913,356.174H256v100.174h205.913c9.223,0,16.696-7.473,16.696-16.696V372.87
	C478.609,363.647,471.136,356.174,461.913,356.174z"/>
<path style="fill:#FFCC33;" d="M478.609,389.565V72.348c0-6.957-4.31-13.185-10.821-15.63c-6.506-2.424-13.853-0.598-18.44,4.636
	L346.837,178.505L269.891,63.087c-3.304-4.957-8.597-7.435-13.891-7.435v333.913H478.609z"/>
<g>
	<path style="fill:#E56722;" d="M306.087,272.696c0-27.619-22.468-50.087-50.087-50.087v100.174
		C283.619,322.783,306.087,300.315,306.087,272.696z"/>
	<path style="fill:#E56722;" d="M461.913,322.783c-27.619,0-50.087-22.468-50.087-50.087s22.468-50.087,50.087-50.087
		S512,245.077,512,272.696S489.532,322.783,461.913,322.783z"/>
</g>
</svg>